<svg xmlns="http://www.w3.org/2000/svg" version="1.1" xmlns:xlink="http://www.w3.org/1999/xlink" xmlns:svgjs="http://svgjs.dev/svgjs" width="100%" height="100%" viewBox="0 0 1000 600"><rect width="1000" height="600" x="0" y="0" fill="#ffffff"/><g><circle r="166.66666666666666" cx="342.2467905680338" cy="364.4690215664233" fill="#dd6a1f" transform="matrix(0.7119257882254844,0,0,0.7119257882254844,0,40.52512399835027)"/><path d="M254.33013377142177 439.4690261980798L252.24680040412568 432.32159018412557L256.8621850947509 431.1677440114692Q265.1634672813615 428.63569268814007 268.17628784329736 425.045949039876Q271.15705712265947 421.45620539161206 271.86218533928275 411.77671805432857L271.86218533928275 411.77671805432857L277.63141620256425 328.92415260109163Q277.85577518058074 326.3921012777625 278.2083392888924 321.42415247882565Q278.560903397204 316.4562036798888 278.560903397204 312.7703061839034L278.560903397204 312.7703061839034Q278.560903397204 305.6228701699491 275.99680079130115 302.61004960801324Q273.46474946797207 299.62928032865113 266.54167243203426 297.7703059393716L266.54167243203426 297.7703059393716L261.4775697853761 296.61645976671525L263.56090315267215 289.469023752761L301.8621858283465 289.469023752761L345.00321217266253 394.69338444250064L389.0737257116184 289.469023752761L419.33013646127245 289.469023752761L422.5352647186511 292.7062032927133L420.2275723733385 296.61645976671525Q416.09295692132014 302.38569062999676 414.3621876623356 308.28312662357337Q412.6314184033512 314.1485113345762 412.6314184033512 322.93056275979365L412.6314184033512 322.93056275979365Q412.6314184033512 326.3921012777625 412.9839825116628 332.03312701074884Q413.3044953374007 337.70620402630897 413.560905597991 341.39210152229435L413.560905597991 341.39210152229435L417.4711620719929 398.8600511770929Q418.62500824464917 411.77671805432857 421.9583416323229 420.4305643492509Q425.32372630257044 429.08441064417315 432.24680333850824 436.00748768011084L432.24680333850824 436.00748768011084L429.4583417545889 439.4690261980798L383.56090510892716 439.4690261980798L380.99680250302436 432.32159018412557L385.8685974542399 431.1677440114692Q392.53526422958726 429.08441064417315 395.3237258135067 425.8472311042207Q398.0801361148523 422.6100515642683 398.0801361148523 416.16774376693735L398.0801361148523 416.16774376693735L397.85577713683574 408.3151795363597L391.381418056931 320.8472293924976L347.791673756582 424.69338493156437L336.4775710080355 424.69338493156437L292.6314164470961 320.8472293924976L288.01603175647097 385.6869740392668Q286.8621855838146 403.475435867718 286.8621855838146 406.0074871910471L286.8621855838146 406.0074871910471Q286.8621855838146 414.53312835567425 288.5929548427991 420.65492332726734Q290.3237241017835 426.77671829886054 294.23398057578544 432.32159018412557L294.23398057578544 432.32159018412557L297.02244215970484 436.00748768011084L293.56090364173593 439.4690261980798L254.33013377142177 439.4690261980798Z " fill="#ffffff" transform="matrix(0.7119257882254844,0,0,0.7119257882254844,0,40.52512399835027)"/>
<path d="M593.6737068587678 401.535459970962L592.2468080238889 396.6400993528393L595.4079377503897 395.8498169212141Q601.0935808001377 394.11558602959207 603.1570960382701 391.6569295756471Q605.1986589866352 389.198273121702 605.6816093615173 382.5686816119573L605.6816093615173 382.5686816119573L609.6330215196433 325.8220125633148Q609.7866875480149 324.08778167169277 610.0281627354559 320.685176757751Q610.2696379228969 317.28257184380914 610.2696379228969 314.758058520562L610.2696379228969 314.758058520562Q610.2696379228969 309.8626979024392 608.5134547415075 307.7991826643068Q606.7792238498856 305.7576197159417 602.0375292601345 304.4843869094344L602.0375292601345 304.4843869094344L598.5690674768905 303.6941044778092L599.9959663117693 298.7987438596865L626.2289525837724 298.7987438596865L655.7767346106477 370.8681111659509L685.9611330407768 298.7987438596865L706.6840945811708 298.7987438596865L708.8793235579075 301.0159251261905L707.2987586946571 303.6941044778092Q704.4669133146668 307.6455166359352 703.281489667229 311.68473795313065Q702.0960660197912 315.70200698055874 702.0960660197912 321.71693437681716L702.0960660197912 321.71693437681716Q702.0960660197912 324.08778167169277 702.3375412072322 327.9513846707493Q702.5570641049059 331.83693995957316 702.7326824230448 334.3614532828204L702.7326824230448 
334.3614532828204L705.4108617746637 373.7219088357086Q706.2011442062889 382.5686816119573 708.4841823420949 388.4957998491463Q710.7891727676684 394.4229180863352 715.5308673574197 399.1646126760864L715.5308673574197 399.1646126760864L713.6210181476587 401.535459970962L682.1853392007897 401.535459970962L680.4291560194004 396.6400993528393L683.7659040640401 395.8498169212141Q688.3319803356525 394.4229180863352 690.2418295454132 392.2057368198312Q692.1297264654069 389.9885555533272 692.1297264654069 385.5761453100865L692.1297264654069 385.5761453100865L691.9760604370352 380.1978343170817L687.5416979040272 320.2900355419384L657.6865838204087 391.415454388206L649.9374255325283 391.415454388206L619.9066931307708 320.2900355419384L616.7455634042701 364.6995177413209Q615.9552809726449 376.8830385622094 615.9552809726449 378.6172694538313L615.9552809726449 378.6172694538313Q615.9552809726449 384.4565785319508 617.1407046200827 388.6494658775178Q618.3261282675205 392.8423532230849 621.0043076191391 396.6400993528393L621.0043076191391 396.6400993528393L622.9141568289001 399.1646126760864L620.5433095340245 401.535459970962L593.6737068587678 401.535459970962ZM761.2135823633095 403.5989752090945Q751.2472428089249 403.5989752090945 743.827368867555 399.0109466477149Q736.3855426364179 394.4229180863352 732.2804644499203 386.1249525542707Q728.1753862634226 377.8269870222061 728.1753862634226 366.916699007825L728.1753862634226 366.916699007825Q728.1753862634226 355.54541290832907 732.7634148248022 346.85230616045186Q737.3294910964145 338.15919941257476 745.803074946618 333.41750482282356Q754.2547065070543 328.67581023307235 765.3186605498069 328.67581023307235L765.3186605498069 328.67581023307235Q777.0192309958132 328.67581023307235 783.4073473181171 334.84440365770234Q789.8174159301881 340.991044792565 789.8174159301881 349.6841515404422L789.8174159301881 349.6841515404422Q789.8174159301881 355.6990789367006 786.5684770446177 361.231055958077Q783.3414904488149 366.7630329794534 777.0850878651155 370.2314947626973Q770.8506375711833 373.7219088357086 762.4648628800493 373.7219088357086L762.4648628800493 373.7219088357086Q757.7231682902981 373.7219088357086 752.1911912689217 372.0535348133887Q746.6592142475453 370.40711308083627 746.6592142475453 367.0703650361965L746.6592142475453 367.0703650361965Q746.6592142475453 365.81908451945657 747.2958306507991 364.87513605945986Q747.9324470540527 363.9092353096957 748.7227294856779 363.9092353096957L748.7227294856779 363.9092353096957Q749.1837275707925 363.9092353096957 751.6423840247377 364.7873269003904Q754.1010404786826 365.66541849108506 758.0524526368087 365.66541849108506L758.0524526368087 365.66541849108506Q766.7455593846856 365.66541849108506 771.4872539744368 360.92372390133386Q776.228948564188 356.18202931158265 776.228948564188 349.5304855120706L776.228948564188 349.5304855120706Q776.228948564188 343.8448424623227 772.4970593037359 339.73976427582517Q768.7871223330509 335.63468608932754 762.6185289084209 335.63468608932754L762.6185289084209 335.63468608932754Q753.3107580470574 335.63468608932754 748.1739222414936 343.7570333032532Q743.0370864359298 351.9013328069462 743.0370864359298 366.916699007825L743.0370864359298 366.916699007825Q743.0370864359298 379.7148839421996 748.4812542982369 386.9152349858959Q753.9254221605437 394.11558602959207 764.1990937716713 394.11558602959207L764.1990937716713 394.11558602959207Q776.8436126776743 394.11558602959207 785.0757213404369 385.8834773668296L785.0757213404369 385.8834773668296Q785.5367194255515 385.42247928171497 786.3270018571767 385.42247928171497L786.3270018571767 385.42247928171497Q787.6002346636839 385.42247928171497 788.9393243394933 386.6737597984549Q790.2784140153027 387.9469926049621 790.2784140153027 389.373891439841L790.2784140153027 389.373891439841Q790.2784140153027 389.8348895249556 789.9710819585595 390.2300307407682Q789.6637499018165 390.6251719565808 789.6637499018165 390.7788379849524L789.6637499018165 390.7788379849524Q784.2854389088117 397.1010974379539 776.9314218367439 400.3500363235242Q769.5774047646761 403.5989752090945 761.2135823633095 403.5989752090945L761.2135823633095 403.5989752090945ZM829.7925355965625 403.5989752090945Q822.8556120300747 403.5989752090945 816.9284937928857 399.559753891899Q811.0013755556967 395.5205325747035 807.4451046133833 387.7055174175211Q803.8888336710701 379.89050226033856 803.8888336710701 368.6509298994469L803.8888336710701 368.6509298994469Q803.8888336710701 350.1671019153243 813.9210300947565 339.4104799293146Q823.9532265184431 328.67581023307235 841.0321079574543 328.67581023307235L841.0321079574543 328.67581023307235Q846.7177510072021 328.67581023307235 856.5084722434477 330.4100411246944L856.5084722434477 330.4100411246944Q863.7746801564459 331.68327393120165 869.6359415243329 332.1442720163163L869.6359415243329 332.1442720163163L871.5238384443263 333.8785029079383L869.4822754959613 336.57863454932436Q868.3627087178255 338.4665314693179 867.9675675020129 339.49828908838407Q867.5724262862003 340.53004670745037 867.5724262862003 342.2642775990723L867.5724262862003 342.2642775990723L867.5724262862003 388.8909410649589Q867.5724262862003 393.32530359796687 872.1604548475801 393.32530359796687L872.1604548475801 393.32530359796687Q875.6289166308239 393.32530359796687 879.2729967322067 390.7788379849524L879.2729967322067 390.7788379849524L881.9511760838255 394.4229180863352Q878.1753822438385 398.6816623012043 873.8946857392019 401.1403187551494Q869.6359415243329 403.5989752090945 866.1455274513215 403.5989752090945L866.1455274513215 403.5989752090945Q860.1525523448305 403.5989752090945 857.4524207034443 400.0427042667811Q854.7742413518257 396.48643332446767 854.7742413518257 388.4079906900768L854.7742413518257 388.4079906900768Q849.0885983020777 396.7937653812108 843.0078140365171 400.1963702951527Q836.9050774811893 403.5989752090945 829.7925355965625 403.5989752090945L829.7925355965625 403.5989752090945ZM835.3245126179389 392.3594028482028Q847.3543674104557 392.3594028482028 854.7742413518257 379.4075518854565L854.7742413518257 379.4075518854565L854.7742413518257 340.68371273582187Q848.6056479271957 336.57863454932436 840.8564896393153 336.57863454932436L840.8564896393153 336.57863454932436Q830.5828180281877 336.57863454932436 824.8313181091377 344.2399836781353Q819.0578659003203 351.9013328069462 819.0578659003203 365.9727505478282L819.0578659003203 365.9727505478282Q819.0578659003203 379.5612179138281 823.7117513310019 385.9712865258991Q828.3875890514511 392.3594028482028 835.3245126179389 392.3594028482028L835.3245126179389 392.3594028482028ZM908.9963970772211 403.5989752090945Q902.9814696809625 403.5989752090945 900.3691471986459 400.0427042667811Q897.7568247163293 396.48643332446767 897.7568247163293 388.4079906900768L897.7568247163293 388.4079906900768L897.7568247163293 304.9673372843165Q897.7568247163293 303.23310639269454 897.1421606028431 302.5086808303714Q896.5055441995895 301.8062075578157 894.9249793363391 301.8062075578157L894.9249793363391 301.8062075578157L888.7563859117091 301.8062075578157L887.3294870768303 298.16212745643287Q891.434565263328 294.3643813266784 896.8128762563325 291.9276771625008Q902.1911872493373 289.4690207085557 906.4499314642065 289.4690207085557L906.4499314642065 289.4690207085557Q908.5134467023391 289.4690207085557 909.7866795088463 290.742253515063Q911.0379600255861 291.9935340318029 911.0379600255861 294.0570492699353L911.0379600255861 294.0570492699353L910.7306279688431 388.8909410649589Q910.7306279688431 391.2617883598345 911.8282424572113 392.53502116634166Q912.9478092353471 393.7863016830816 914.9893721837121 393.7863016830816L914.9893721837121 393.7863016830816Q918.9407843418381 393.7863016830816 922.1019140683389 390.7788379849524L922.1019140683389 390.7788379849524L924.9557117380965 394.4229180863352Q921.3116316367137 398.5279962728328 916.8992213934731 401.0525095960799Q912.4648588604649 403.5989752090945 908.9963970772211 403.5989752090945L908.9963970772211 403.5989752090945ZM934.2854348892273 401.535459970962L932.5292517078382 396.6400993528393L936.0196657808493 395.8498169212141Q941.3979767738541 394.4229180863352 943.1980645347782 391.8105956040186Q945.0201045854695 389.198273121702 945.0201045854695 382.5686816119573L945.0201045854695 382.5686816119573L945.0201045854695 311.7505948224328Q945.0201045854695 309.8626979024392 944.2298221538443 309.1602246298835Q943.4395397222191 308.4357990675604 941.8589748589687 308.4357990675604L941.8589748589687 308.4357990675604L933.6488184859737 308.4357990675604L931.9145875943517 303.05748807455564Q938.0612287292143 300.68664077968003 948.1812343119703 298.71093470061703Q958.3012398947263 296.73522862155403 967.6309630458571 296.73522862155403L967.6309630458571 296.73522862155403Q988.639304353227 296.73522862155403 998.9129759643546 306.21861780105644Q1009.186647575482 315.70200698055874 1009.186647575482 330.7173731814375L1009.186647575482 330.7173731814375Q1009.186647575482 340.0470963325683 1005.4767106047972 347.64258859207706Q1001.7667736341122 355.2161285618186 994.1054245053011 359.73830025389606Q986.4440753764903 364.2385196562063 975.050836987227 364.2385196562063L975.050836987227 364.2385196562063Q970.0018103407327 364.2385196562063 966.2040642109783 362.89942998039686Q962.406318081224 361.5383880148201 962.406318081224 359.1675407199445L962.406318081224 359.1675407199445Q962.406318081224 357.76259417483305 962.9551253254082 356.73083655576687Q963.5258848593595 355.6990789367006 964.6234993477279 355.6990789367006L964.6234993477279 355.6990789367006Q965.1064497226099 355.6990789367006 966.9943466426035 356.2478861808848Q968.8822435625972 356.796693425069 971.5823752039831 356.796693425069L971.5823752039831 356.796693425069Q982.3170449002254 356.796693425069 988.4197814555533 349.85976985858116Q994.5005657211137 342.90089400232597 994.5005657211137 331.3539895846911L994.5005657211137 331.3539895846911Q994.5005657211137 319.65341913868474 988.0904971090428 312.1457360382454Q981.7023807867391 304.63805293780604 970.0018103407327 304.63805293780604L970.0018103407327 304.63805293780604Q959.2451883547232 304.63805293780604 959.2451883547232 311.4432627656896L959.2451883547232 311.4432627656896L959.2451883547232 372.77796037571176Q959.2451883547232 381.6247331519606 960.6720871896019 386.7615689575243Q962.0989860244807 391.8984047630881 965.7211138360962 396.6400993528393L965.7211138360962 396.6400993528393L967.6309630458571 399.1646126760864L965.7211138360962 401.535459970962L934.2854348892273 401.535459970962ZM1020.7335519931167 401.535459970962L1019.306653158238 397.1010974379539L1022.0067847996241 396.3108150063287Q1025.782578639611 395.69615089284247 1026.9680022870489 393.391160467269Q1028.1534259344867 391.1081223314629 1028.1534259344867 385.5761453100865L1028.1534259344867 385.5761453100865L1028.1534259344867 345.4254073255731Q1028.1534259344867 343.69117643395117 1027.5387618210007 342.966750871628Q1026.9021454177469 342.2642775990723 1025.3215805544964 342.2642775990723L1025.3215805544964 342.2642775990723L1019.1529871298666 342.2642775990723L1017.7260882949876 338.4665314693179Q1021.8311664814852 334.6687853395635 1027.20947747449 332.2979380446879Q1032.5877884674946 329.9270907498123 1036.6928666539925 329.9270907498123L1036.6928666539925 329.9270907498123Q1038.7563818921249 329.9270907498123 1040.0076624088647 331.2003235563196Q1041.2808952153719 332.47355636282686 1041.2808952153719 334.3614532828204L1041.2808952153719 334.3614532828204L1041.2808952153719 350.01343588695266L1042.071177646997 350.01343588695266Q1044.5956909702445 340.37638067907875 1049.7325267758083 334.5151193111919Q1054.8693625813717 328.67581023307235 1060.8842899776305 328.67581023307235L1060.8842899776305 328.67581023307235Q1066.8772650841215 328.67581023307235 1070.762820372945 332.5394132321289Q1074.6264233720017 336.42496852095275 1074.6264233720017 343.2082260590691L1074.6264233720017 343.2082260590691Q1074.6264233720017 348.5865370520739 1070.6750112138757 352.23061715345676Q1066.7235990557497 355.8527449650722 1060.7306239492586 355.8527449650722L1060.7306239492586 355.8527449650722Q1057.876826279501 355.8527449650722 1057.876826279501 354.4258461301934L1057.876826279501 354.4258461301934Q1057.876826279501 353.96484804507867 1058.9744407678695 352.23061715345676Q1060.0940075460053 350.4744339720674 1060.8842899776305 348.7402030804454Q1061.6745724092557 347.0059721888235 1061.6745724092557 344.6351248939479L1061.6745724092557 344.6351248939479Q1061.6745724092557 341.95694554232915 1060.401339602748 340.4422375483809Q1059.1500590860082 338.94948184419997 1057.0865438478759 338.94948184419997L1057.0865438478759 338.94948184419997Q1053.7717480930037 338.94948184419997 1050.127667991621 343.0545600306975Q1046.505540180005 347.159638217195 1043.8932176976887 356.18202931158265Q1041.2808952153719 365.182468116203 1041.2808952153719 379.10021982871336L1041.2808952153719 379.10021982871336Q1041.2808952153719 385.5761453100865 1042.3126528344383 389.5934143375146Q1043.3444104535042 393.63263565471 1045.8689237767517 397.1010974379539L1045.8689237767517 397.1010974379539L1047.6031546683735 399.318278704458L1045.8689237767517 401.535459970962L1020.7335519931167 401.535459970962ZM1113.9868789248899 403.5989752090945Q1104.0205393705055 403.5989752090945 1096.6006654291355 399.0109466477149Q1089.1807914877659 394.4229180863352 1085.0537610115011 386.1249525542707Q1080.9486828250033 377.8269870222061 1080.9486828250033 366.916699007825L1080.9486828250033 366.916699007825Q1080.9486828250033 355.54541290832907 1085.536711386383 346.85230616045186Q1090.1247399477625 338.15919941257476 1098.5763715081985 333.41750482282356Q1107.028003068635 328.67581023307235 1118.0919571113877 328.67581023307235L1118.0919571113877 328.67581023307235Q1129.792527557394 328.67581023307235 1136.2025961694649 334.84440365770234Q1142.5907124917685 340.991044792565 1142.5907124917685 349.6841515404422L1142.5907124917685 349.6841515404422Q1142.5907124917685 355.6990789367006 1139.3637258959657 361.231055958077Q1136.1147870103955 366.7630329794534 1129.8803367164633 370.2314947626973Q1123.6239341327637 373.7219088357086 1115.260111731397 373.7219088357086L1115.260111731397 373.7219088357086Q1110.5184171416458 373.7219088357086 1104.98644012027 372.0535348133887Q1099.4544630988935 370.40711308083627 1099.4544630988935 367.0703650361965L1099.4544630988935 367.0703650361965Q1099.4544630988935 365.81908451945657 1100.0691272123795 364.87513605945986Q1100.7057436156333 363.9092353096957 1101.4960260472585 363.9092353096957L1101.4960260472585 363.9092353096957Q1101.9789764221405 363.9092353096957 1104.415680586318 364.7873269003904Q1106.874337040263 365.66541849108506 1110.825749198389 365.66541849108506L1110.825749198389 365.66541849108506Q1119.5188559462663 365.66541849108506 1124.2605505360175 360.92372390133386Q1129.0022451257687 356.18202931158265 1129.0022451257687 349.5304855120706L1129.0022451257687 349.5304855120706Q1129.0022451257687 343.8448424623227 1125.292308155084 339.73976427582517Q1121.5823711843987 335.63468608932754 1115.413777759769 335.63468608932754L1115.413777759769 335.63468608932754Q1106.0840546086379 335.63468608932754 1100.947218803074 343.7570333032532Q1095.8103829975103 351.9013328069462 1095.8103829975103 366.916699007825L1095.8103829975103 366.916699007825Q1095.8103829975103 379.7148839421996 1101.2545508598173 386.9152349858959Q1106.7206710118917 394.11558602959207 1116.9943426230193 394.11558602959207L1116.9943426230193 394.11558602959207Q1129.6388615290225 394.11558602959207 1137.8490179020173 385.8834773668296L1137.8490179020173 385.8834773668296Q1138.3319682768993 385.42247928171497 1139.1222507085245 385.42247928171497L1139.1222507085245 385.42247928171497Q1140.3735312252647 385.42247928171497 1141.7345731908413 386.6737597984549Q1143.0736628666505 387.9469926049621 1143.0736628666505 389.373891439841L1143.0736628666505 389.373891439841Q1143.0736628666505 389.8348895249556 1142.7443785201403 390.2300307407682Q1142.437046463397 390.6251719565808 1142.437046463397 390.7788379849524L1142.437046463397 390.7788379849524Q1137.058735470392 397.1010974379539 1129.7047183983245 400.3500363235242Q1122.3726536160239 403.5989752090945 1113.9868789248899 403.5989752090945L1113.9868789248899 403.5989752090945ZM1160.3062103340335 439.4690166889714L1158.725645470783 437.5811197689779L1160.3062103340335 435.2102724741023Q1162.9843896856523 431.5661923727195 1164.0820041740203 427.52697105552403Q1165.201570952156 423.5097020280959 1165.201570952156 416.7044922002123L1165.201570952156 416.7044922002123L1165.201570952156 347.0059721888235Q1165.201570952156 344.942456950691 1164.5649545489027 343.8448424623227Q1163.928338145649 342.74722797395435 1162.1941072540267 342.2642775990723L1162.1941072540267 342.2642775990723L1154.774233312657 340.53004670745037L1154.774233312657 336.0956841744423Q1156.9694622893935 334.05412122607726 1163.291721742395 332.1442720163163Q1169.6139811953967 330.25637509632276 1174.355675785148 330.25637509632276L1174.355675785148 330.25637509632276Q1177.9997558865307 330.25637509632276 1177.9997558865307 336.8859666060675L1177.9997558865307 336.8859666060675L1177.9997558865307 337.52258300932107Q1187.1758130092899 328.67581023307235 1198.7007651371573 328.67581023307235L1198.7007651371573 328.67581023307235Q1207.3938718850345 328.67581023307235 1214.35274774129 333.0882204763131Q1221.311623597545 337.52258300932107 1225.1752265966015 345.3375981665036Q1229.0607818854255 353.17456561345347 1229.0607818854255 363.29457119620946L1229.0607818854255 363.29457119620946Q1229.0607818854255 374.6658572957053 1224.9337514091608 383.9077712877667Q1220.828673222663 393.149685279828 1213.650274468734 398.3743302444612Q1206.449923425038 403.5989752090945 1197.6031506487893 403.5989752090945L1197.6031506487893 403.5989752090945Q1189.0637099292835 403.5989752090945 1183.3780668795357 399.6475630509685L1183.3780668795357 399.6475630509685Q1181.9511680446567 398.85728061934327 1181.9511680446567 397.1010974379539L1181.9511680446567 397.1010974379539Q1181.9511680446567 395.5205325747035 1182.4999752888411 394.51072724540467Q1183.0487825330251 393.4789696263385 1184.168349311161 393.4789696263385L1184.168349311161 393.4789696263385Q1184.6293473962755 393.4789696263385 1187.2416698785923 394.6643932737763Q1189.8539923609087 395.8498169212141 1194.112736575778 395.8498169212141L1194.112736575778 395.8498169212141Q1202.9814616417939 395.8498169212141 1208.425629504101 387.46404223008Q1213.869797366408 379.10021982871336 1213.869797366408 365.9727505478282L1213.869797366408 365.9727505478282Q1213.869797366408 353.6355636985682 1208.425629504101 345.8205485413857Q1202.9814616417939 338.00553338420315 1193.9590705474066 338.00553338420315L1193.9590705474066 338.00553338420315Q1189.2173759576553 338.00553338420315 1185.4196298279007 339.2568139009431Q1181.643835987914 340.53004670745037 1177.9997558865307 343.53751040557955L1177.9997558865307 343.53751040557955L1177.9997558865307 423.817034084839Q1177.9997558865307 429.3490111062154 1179.1851795339685 431.5661923727195Q1180.3706031814063 433.7833736392235 1184.014683282789 434.5736560708487L1184.014683282789 434.5736560708487L1186.8465286627797 435.2102724741023L1185.5952481460395 439.4690166889714L1160.3062103340335 439.4690166889714Z " fill="#dd6a1f" transform="matrix(0.7119257882254844,0,0,0.7119257882254844,0,40.52512399835027)"/>
</g></svg>